<svg width="25" height="24" viewBox="0 0 25 24" fill="none" xmlns="http://www.w3.org/2000/svg">
<path d="M10.6372 17.4626L19.7435 8.35635L17.9351 6.54802L10.6372 13.8459L6.95598 10.1647L5.14764 11.973L10.6372 17.4626ZM3.40389 23.6626C2.69348 23.6626 2.0851 23.4094 1.57877 22.9031C1.07243 22.3968 0.819698 21.7888 0.820559 21.0793V2.99593C0.820559 2.28552 1.07373 1.67714 1.58006 1.17081C2.08639 0.664475 2.69434 0.411739 3.40389 0.4126H21.4872C22.1976 0.4126 22.806 0.665767 23.3124 1.1721C23.8187 1.67843 24.0714 2.28638 24.0706 2.99593V21.0793C24.0706 21.7897 23.8174 22.3981 23.3111 22.9044C22.8047 23.4107 22.1968 23.6635 21.4872 23.6626H3.40389Z" fill="#579D5D"/>
</svg>
