<svg width="598" height="105" viewBox="0 0 598 105" fill="none" xmlns="http://www.w3.org/2000/svg">
<path d="M54.4472 28.1509C52.8605 28.2442 51.7172 28.4309 51.0172 28.7109C50.3172 28.9909 49.8272 29.5276 49.5472 30.3209C49.3139 31.1142 49.1972 32.3976 49.1972 34.1709V68.8909C49.1972 70.6642 49.3139 71.9476 49.5472 72.7409C49.8272 73.5342 50.3172 74.0709 51.0172 74.3509C51.7172 74.6309 52.8605 74.8176 54.4472 74.9109V76.3109C52.1605 76.1709 48.6139 76.1009 43.8072 76.1009C39.0939 76.1009 35.4305 76.1709 32.8172 76.3109V74.9109C34.3572 74.8176 35.4772 74.6309 36.1772 74.3509C36.9239 74.0709 37.4139 73.5342 37.6472 72.7409C37.9272 71.9476 38.0672 70.6642 38.0672 68.8909V52.0909H19.5172V68.8909C19.5172 70.6642 19.6339 71.9476 19.8672 72.7409C20.1472 73.5342 20.6372 74.0709 21.3372 74.3509C22.0372 74.6309 23.1805 74.8176 24.7672 74.9109V76.3109C22.2472 76.1709 18.7239 76.1009 14.1972 76.1009C9.20387 76.1009 5.5172 76.1709 3.1372 76.3109V74.9109C4.6772 74.8176 5.7972 74.6309 6.4972 74.3509C7.24387 74.0709 7.73387 73.5342 7.9672 72.7409C8.2472 71.9476 8.3872 70.6642 8.3872 68.8909V34.1709C8.3872 32.3976 8.2472 31.1142 7.9672 30.3209C7.73387 29.5276 7.24387 28.9909 6.4972 28.7109C5.7972 28.4309 4.6772 28.2442 3.1372 28.1509V26.7509C5.5172 26.8909 9.20387 26.9609 14.1972 26.9609C18.7239 26.9609 22.2472 26.8909 24.7672 26.7509V28.1509C23.1805 28.2442 22.0372 28.4309 21.3372 28.7109C20.6372 28.9909 20.1472 29.5276 19.8672 30.3209C19.6339 31.1142 19.5172 32.3976 19.5172 34.1709V50.6909H38.0672V34.1709C38.0672 32.3976 37.9272 31.1142 37.6472 30.3209C37.4139 29.5276 36.9239 28.9909 36.1772 28.7109C35.4772 28.4309 34.3572 28.2442 32.8172 28.1509V26.7509C35.4305 26.8909 39.0939 26.9609 43.8072 26.9609C48.6139 26.9609 52.1605 26.8909 54.4472 26.7509V28.1509ZM99.5135 70.4309C100.12 71.9709 100.82 73.0909 101.614 73.7909C102.407 74.4909 103.177 74.8642 103.924 74.9109V76.3109C101.124 76.1709 97.5769 76.1009 93.2835 76.1009C88.5235 76.1009 84.9769 76.1709 82.6435 76.3109V74.9109C84.4169 74.8176 85.6769 74.6076 86.4235 74.2809C87.1702 73.9076 87.5435 73.2776 87.5435 72.3909C87.5435 71.5509 87.2635 70.4309 86.7035 69.0309L82.5035 57.5509H67.2435L65.4235 62.3809C64.1169 65.7409 63.4635 68.3309 63.4635 70.1509C63.4635 71.8776 63.9769 73.0909 65.0035 73.7909C66.0769 74.4442 67.6402 74.8176 69.6935 74.9109V76.3109C66.5202 76.1709 63.6269 76.1009 61.0135 76.1009C58.8669 76.1009 57.0935 76.1709 55.6935 76.3109V74.9109C57.9802 74.4909 59.9869 72.0409 61.7135 67.5609L77.6735 26.6109C78.1869 26.6576 79.0035 26.6809 80.1235 26.6809C81.2435 26.6809 82.0369 26.6576 82.5035 26.6109L99.5135 70.4309ZM82.0135 56.1509L75.0835 37.2509L67.8035 56.1509H82.0135ZM120.826 56.2909V68.4709C120.826 70.3376 121.012 71.7142 121.386 72.6009C121.806 73.4409 122.506 74.0009 123.486 74.2809C124.512 74.5609 126.122 74.7242 128.316 74.7709V76.3109C122.576 76.1709 118.306 76.1009 115.506 76.1009C113.172 76.1009 110.232 76.1476 106.686 76.2409L104.446 76.3109V74.9109C105.986 74.8176 107.106 74.6309 107.806 74.3509C108.552 74.0709 109.042 73.5342 109.276 72.7409C109.556 71.9476 109.696 70.6642 109.696 68.8909V34.1709C109.696 32.3976 109.556 31.1142 109.276 30.3209C109.042 29.5276 108.552 28.9909 107.806 28.7109C107.106 28.4309 105.986 28.2442 104.446 28.1509V26.7509C106.826 26.8909 110.372 26.9609 115.086 26.9609L122.856 26.8909C123.789 26.8442 124.862 26.8209 126.076 26.8209C132.376 26.8209 137.182 28.0809 140.496 30.6009C143.809 33.0742 145.466 36.4109 145.466 40.6109C145.466 43.1776 144.812 45.6509 143.506 48.0309C142.199 50.3642 139.982 52.3242 136.856 53.9109C133.776 55.4976 129.669 56.2909 124.536 56.2909H120.826ZM125.166 28.1509C123.906 28.1509 122.972 28.3142 122.366 28.6409C121.806 28.9676 121.409 29.5509 121.176 30.3909C120.942 31.2309 120.826 32.4909 120.826 34.1709V54.8909H123.836C127.616 54.8909 130.229 53.6776 131.676 51.2509C133.122 48.8242 133.846 45.5342 133.846 41.3809C133.846 36.8542 133.169 33.5176 131.816 31.3709C130.509 29.2242 128.292 28.1509 125.166 28.1509ZM165.328 56.2909V68.4709C165.328 70.3376 165.514 71.7142 165.888 72.6009C166.308 73.4409 167.008 74.0009 167.988 74.2809C169.014 74.5609 170.624 74.7242 172.818 74.7709V76.3109C167.078 76.1709 162.808 76.1009 160.008 76.1009C157.674 76.1009 154.734 76.1476 151.188 76.2409L148.948 76.3109V74.9109C150.488 74.8176 151.608 74.6309 152.308 74.3509C153.054 74.0709 153.544 73.5342 153.778 72.7409C154.058 71.9476 154.198 70.6642 154.198 68.8909V34.1709C154.198 32.3976 154.058 31.1142 153.778 30.3209C153.544 29.5276 153.054 28.9909 152.308 28.7109C151.608 28.4309 150.488 28.2442 148.948 28.1509V26.7509C151.328 26.8909 154.874 26.9609 159.588 26.9609L167.358 26.8909C168.291 26.8442 169.364 26.8209 170.578 26.8209C176.878 26.8209 181.684 28.0809 184.998 30.6009C188.311 33.0742 189.968 36.4109 189.968 40.6109C189.968 43.1776 189.314 45.6509 188.008 48.0309C186.701 50.3642 184.484 52.3242 181.358 53.9109C178.278 55.4976 174.171 56.2909 169.038 56.2909H165.328ZM169.668 28.1509C168.408 28.1509 167.474 28.3142 166.868 28.6409C166.308 28.9676 165.911 29.5509 165.678 30.3909C165.444 31.2309 165.328 32.4909 165.328 34.1709V54.8909H168.338C172.118 54.8909 174.731 53.6776 176.178 51.2509C177.624 48.8242 178.348 45.5342 178.348 41.3809C178.348 36.8542 177.671 33.5176 176.318 31.3709C175.011 29.2242 172.794 28.1509 169.668 28.1509ZM228.53 26.8909C230.676 26.8909 232.45 26.8209 233.85 26.6809V28.0809C231.703 28.9676 229.463 31.6742 227.13 36.2009L218.87 52.5809V68.8909C218.87 70.6642 218.986 71.9476 219.22 72.7409C219.5 73.5342 219.99 74.0709 220.69 74.3509C221.39 74.6309 222.533 74.8176 224.12 74.9109V76.3109C221.6 76.1709 218.006 76.1009 213.34 76.1009C208.346 76.1009 204.73 76.1709 202.49 76.3109V74.9109C204.03 74.8176 205.15 74.6309 205.85 74.3509C206.596 74.0709 207.086 73.5342 207.32 72.7409C207.6 71.9476 207.74 70.6642 207.74 68.8909V57.0609L194.23 32.0709C192.783 29.4576 191.43 28.1509 190.17 28.1509V26.6809C192.223 26.9142 194.976 27.0309 198.43 27.0309C202.77 27.0309 207.156 26.9142 211.59 26.6809V28.1509C209.956 28.1509 208.65 28.3142 207.67 28.6409C206.736 28.9209 206.27 29.4576 206.27 30.2509C206.27 30.6709 206.433 31.1842 206.76 31.7909L217.4 52.3009L222.86 41.3809C224.68 37.6942 225.59 34.8009 225.59 32.7009C225.59 31.1142 225.076 29.9709 224.05 29.2709C223.07 28.5709 221.646 28.1742 219.78 28.0809V26.6809C222.953 26.8209 225.87 26.8909 228.53 26.8909Z" fill="black"/>
<path d="M385.611 28.1509C384.025 28.2442 382.881 28.4309 382.181 28.7109C381.481 28.9909 380.991 29.5276 380.711 30.3209C380.478 31.1142 380.361 32.3976 380.361 34.1709V68.8909C380.361 70.6642 380.478 71.9476 380.711 72.7409C380.991 73.5342 381.481 74.0709 382.181 74.3509C382.881 74.6309 384.025 74.8176 385.611 74.9109V76.3109C383.325 76.1709 379.778 76.1009 374.971 76.1009C370.258 76.1009 366.595 76.1709 363.981 76.3109V74.9109C365.521 74.8176 366.641 74.6309 367.341 74.3509C368.088 74.0709 368.578 73.5342 368.811 72.7409C369.091 71.9476 369.231 70.6642 369.231 68.8909V52.0909H350.681V68.8909C350.681 70.6642 350.798 71.9476 351.031 72.7409C351.311 73.5342 351.801 74.0709 352.501 74.3509C353.201 74.6309 354.345 74.8176 355.931 74.9109V76.3109C353.411 76.1709 349.888 76.1009 345.361 76.1009C340.368 76.1009 336.681 76.1709 334.301 76.3109V74.9109C335.841 74.8176 336.961 74.6309 337.661 74.3509C338.408 74.0709 338.898 73.5342 339.131 72.7409C339.411 71.9476 339.551 70.6642 339.551 68.8909V34.1709C339.551 32.3976 339.411 31.1142 339.131 30.3209C338.898 29.5276 338.408 28.9909 337.661 28.7109C336.961 28.4309 335.841 28.2442 334.301 28.1509V26.7509C336.681 26.8909 340.368 26.9609 345.361 26.9609C349.888 26.9609 353.411 26.8909 355.931 26.7509V28.1509C354.345 28.2442 353.201 28.4309 352.501 28.7109C351.801 28.9909 351.311 29.5276 351.031 30.3209C350.798 31.1142 350.681 32.3976 350.681 34.1709V50.6909H369.231V34.1709C369.231 32.3976 369.091 31.1142 368.811 30.3209C368.578 29.5276 368.088 28.9909 367.341 28.7109C366.641 28.4309 365.521 28.2442 363.981 28.1509V26.7509C366.595 26.8909 370.258 26.9609 374.971 26.9609C379.778 26.9609 383.325 26.8909 385.611 26.7509V28.1509ZM411.918 28.1509C410.331 28.2442 409.188 28.4309 408.488 28.7109C407.788 28.9909 407.298 29.5276 407.018 30.3209C406.784 31.1142 406.668 32.3976 406.668 34.1709V68.8909C406.668 70.6642 406.784 71.9476 407.018 72.7409C407.298 73.5342 407.788 74.0709 408.488 74.3509C409.188 74.6309 410.331 74.8176 411.918 74.9109V76.3109C409.398 76.1709 405.874 76.1009 401.348 76.1009C396.354 76.1009 392.668 76.1709 390.288 76.3109V74.9109C391.828 74.8176 392.948 74.6309 393.648 74.3509C394.394 74.0709 394.884 73.5342 395.118 72.7409C395.398 71.9476 395.538 70.6642 395.538 68.8909V34.1709C395.538 32.3976 395.398 31.1142 395.118 30.3209C394.884 29.5276 394.394 28.9909 393.648 28.7109C392.948 28.4309 391.828 28.2442 390.288 28.1509V26.7509C392.668 26.8909 396.354 26.9609 401.348 26.9609C405.874 26.9609 409.398 26.8909 411.918 26.7509V28.1509ZM459.866 70.6409C460.566 71.7142 461.289 72.5776 462.036 73.2309C462.783 73.8842 463.739 74.4442 464.906 74.9109V76.3109C461.639 76.1709 457.999 76.1009 453.986 76.1009C450.906 76.1009 447.943 76.1709 445.096 76.3109V74.9109C446.403 74.8176 447.336 74.6776 447.896 74.4909C448.503 74.3042 448.806 73.9776 448.806 73.5109C448.806 73.1376 448.549 72.5542 448.036 71.7609L437.886 55.3109C436.953 53.8176 436.159 52.8142 435.506 52.3009C434.899 51.7876 434.059 51.4842 432.986 51.3909V68.8909C432.986 70.6642 433.103 71.9476 433.336 72.7409C433.616 73.5342 434.106 74.0709 434.806 74.3509C435.506 74.6309 436.649 74.8176 438.236 74.9109V76.3109C435.716 76.1709 432.193 76.1009 427.666 76.1009C422.673 76.1009 418.986 76.1709 416.606 76.3109V74.9109C418.146 74.8176 419.266 74.6309 419.966 74.3509C420.713 74.0709 421.203 73.5342 421.436 72.7409C421.716 71.9476 421.856 70.6642 421.856 68.8909V34.1709C421.856 32.3976 421.716 31.1142 421.436 30.3209C421.203 29.5276 420.713 28.9909 419.966 28.7109C419.266 28.4309 418.146 28.2442 416.606 28.1509V26.7509C418.986 26.8909 422.673 26.9609 427.666 26.9609C432.193 26.9609 435.716 26.8909 438.236 26.7509V28.1509C436.649 28.2442 435.506 28.4309 434.806 28.7109C434.106 28.9909 433.616 29.5276 433.336 30.3209C433.103 31.1142 432.986 32.3976 432.986 34.1709V49.9209C434.853 49.8276 436.556 49.2676 438.096 48.2409C439.636 47.2142 441.386 45.5809 443.346 43.3409L447.476 38.3709C449.623 35.8976 450.696 33.7276 450.696 31.8609C450.696 30.7409 450.229 29.8542 449.296 29.2009C448.409 28.5476 447.149 28.1742 445.516 28.0809V26.7509C448.923 26.8909 452.376 26.9609 455.876 26.9609C458.583 26.9609 460.776 26.8909 462.456 26.7509V28.0809C458.723 28.9676 455.339 31.2076 452.306 34.8009L443.556 45.2309L459.866 70.6409ZM504.937 65.6709C504.937 69.9642 505.1 73.5109 505.427 76.3109C502.253 76.1709 496.91 76.1009 489.397 76.1009C479.223 76.1009 471.617 76.1709 466.577 76.3109V74.9109C468.117 74.8176 469.237 74.6309 469.937 74.3509C470.683 74.0709 471.173 73.5342 471.407 72.7409C471.687 71.9476 471.827 70.6642 471.827 68.8909V34.1709C471.827 32.3976 471.687 31.1142 471.407 30.3209C471.173 29.5276 470.683 28.9909 469.937 28.7109C469.237 28.4309 468.117 28.2442 466.577 28.1509V26.7509C471.617 26.8909 479.223 26.9609 489.397 26.9609C496.257 26.9609 501.133 26.8909 504.027 26.7509C503.7 30.6242 503.537 34.0776 503.537 37.1109C503.537 39.1642 503.607 40.7509 503.747 41.8709H502.137C501.437 36.8776 500.177 33.3776 498.357 31.3709C496.537 29.3642 493.97 28.3609 490.657 28.3609H487.787C486.34 28.3609 485.29 28.4776 484.637 28.7109C483.983 28.9442 483.54 29.4109 483.307 30.1109C483.073 30.7642 482.957 31.8376 482.957 33.3309V50.6909H485.197C487.67 50.6909 489.537 49.7809 490.797 47.9609C492.103 46.1409 493.013 43.9709 493.527 41.4509H495.137C494.997 43.4109 494.927 45.6042 494.927 48.0309V51.3909C494.927 53.7709 495.067 57.0842 495.347 61.3309H493.737C492.757 55.1709 489.91 52.0909 485.197 52.0909H482.957V69.7309C482.957 71.2242 483.073 72.3209 483.307 73.0209C483.54 73.6742 483.983 74.1176 484.637 74.3509C485.29 74.5842 486.34 74.7009 487.787 74.7009H491.217C494.53 74.7009 497.19 73.5809 499.197 71.3409C501.25 69.0542 502.697 65.2042 503.537 59.7909H505.147C505.007 61.3309 504.937 63.2909 504.937 65.6709ZM558.402 73.2309C557.142 74.6776 555.789 75.7042 554.342 76.3109C552.895 76.9642 551.145 77.2909 549.092 77.2909C546.385 77.2909 544.239 76.7309 542.652 75.6109C541.112 74.4442 540.109 72.4842 539.642 69.7309L538.382 62.7309C537.775 59.3242 537.029 56.8276 536.142 55.2409C535.302 53.6076 533.879 52.7909 531.872 52.7909H527.322V68.8909C527.322 70.6642 527.439 71.9476 527.672 72.7409C527.952 73.5342 528.442 74.0709 529.142 74.3509C529.842 74.6309 530.985 74.8176 532.572 74.9109V76.3109C530.052 76.1709 526.529 76.1009 522.002 76.1009C517.009 76.1009 513.322 76.1709 510.942 76.3109V74.9109C512.482 74.8176 513.602 74.6309 514.302 74.3509C515.049 74.0709 515.539 73.5342 515.772 72.7409C516.052 71.9476 516.192 70.6642 516.192 68.8909V34.1709C516.192 32.3976 516.052 31.1142 515.772 30.3209C515.539 29.5276 515.049 28.9909 514.302 28.7109C513.602 28.4309 512.482 28.2442 510.942 28.1509V26.7509C513.322 26.8909 516.869 26.9609 521.582 26.9609L529.352 26.8909C530.285 26.8442 531.359 26.8209 532.572 26.8209C539.012 26.8209 543.842 27.8709 547.062 29.9709C550.329 32.0709 551.962 35.0809 551.962 39.0009C551.962 42.3142 550.749 45.2309 548.322 47.7509C545.895 50.2709 541.882 51.8576 536.282 52.5109C540.482 52.8842 543.609 53.7942 545.662 55.2409C547.715 56.6876 549.045 58.8576 549.652 61.7509L551.262 68.9609C551.635 70.8276 552.055 72.1342 552.522 72.8809C553.035 73.6276 553.735 74.0009 554.622 74.0009C555.182 73.9542 555.649 73.8142 556.022 73.5809C556.442 73.3476 556.909 72.9509 557.422 72.3909L558.402 73.2309ZM531.662 28.1509C530.402 28.1509 529.469 28.3142 528.862 28.6409C528.302 28.9676 527.905 29.5509 527.672 30.3909C527.439 31.2309 527.322 32.4909 527.322 34.1709V51.3909H530.332C534.159 51.3909 536.772 50.3876 538.172 48.3809C539.619 46.3276 540.342 43.4576 540.342 39.7709C540.342 35.9442 539.665 33.0509 538.312 31.0909C536.959 29.1309 534.742 28.1509 531.662 28.1509ZM576.909 25.8409C579.335 25.8409 581.272 26.0742 582.719 26.5409C584.165 27.0076 585.635 27.6842 587.129 28.5709C587.642 28.8509 588.085 29.0842 588.459 29.2709C588.879 29.4576 589.229 29.5509 589.509 29.5509C589.929 29.5509 590.255 29.3176 590.489 28.8509C590.722 28.3376 590.909 27.5442 591.049 26.4709H592.659C592.425 29.5976 592.309 34.9176 592.309 42.4309H590.699C590.512 39.9109 589.929 37.5076 588.949 35.2209C588.015 32.9342 586.662 31.0909 584.889 29.6909C583.162 28.2442 581.132 27.5209 578.799 27.5209C576.512 27.5209 574.645 28.1742 573.199 29.4809C571.799 30.7409 571.099 32.4676 571.099 34.6609C571.099 36.2942 571.449 37.7176 572.149 38.9309C572.849 40.1442 573.829 41.2642 575.089 42.2909C576.349 43.2709 578.285 44.6242 580.899 46.3509L583.139 47.8909C585.892 49.7109 588.062 51.2976 589.649 52.6509C591.235 54.0042 592.519 55.5909 593.499 57.4109C594.525 59.1842 595.039 61.2609 595.039 63.6409C595.039 66.6276 594.269 69.1476 592.729 71.2009C591.189 73.2076 589.089 74.7242 586.429 75.7509C583.815 76.7776 580.899 77.2909 577.679 77.2909C575.065 77.2909 572.895 77.0576 571.169 76.5909C569.442 76.1242 567.855 75.4942 566.409 74.7009C565.382 74.0476 564.589 73.7209 564.029 73.7209C563.609 73.7209 563.282 73.9776 563.049 74.4909C562.815 74.9576 562.629 75.7276 562.489 76.8009H560.879C561.065 73.8609 561.159 67.5609 561.159 57.9009H562.769C563.095 63.1276 564.262 67.3742 566.269 70.6409C568.275 73.8609 571.355 75.4709 575.509 75.4709C578.029 75.4709 580.105 74.7942 581.739 73.4409C583.372 72.0876 584.189 70.1509 584.189 67.6309C584.189 65.0176 583.349 62.7776 581.669 60.9109C579.989 59.0442 577.329 56.9442 573.689 54.6109C570.889 52.7909 568.649 51.2042 566.969 49.8509C565.289 48.4976 563.912 46.9109 562.839 45.0909C561.765 43.2242 561.229 41.0776 561.229 38.6509C561.229 35.8509 561.929 33.4942 563.329 31.5809C564.775 29.6209 566.689 28.1742 569.069 27.2409C571.449 26.3076 574.062 25.8409 576.909 25.8409Z" fill="black"/>
<path d="M264.54 44.5973L281.144 18.4652C281.302 18.2161 281.666 18.2183 281.822 18.4692L297.992 44.6013C298.157 44.8678 297.965 45.2118 297.652 45.2118H292.327C292.008 45.2118 291.818 45.5652 291.992 45.8312L306.556 68.0335C306.73 68.2995 306.539 68.6529 306.221 68.6529H299.108C298.79 68.6529 298.599 69.0052 298.772 69.2713L309.951 86.4256C310.124 86.6916 309.933 87.0439 309.616 87.0439H252.961C252.648 87.0439 252.456 86.6989 252.622 86.4324L263.317 69.2644C263.483 68.9979 263.291 68.6529 262.977 68.6529H256.596C256.278 68.6529 256.087 68.3011 256.26 68.035L270.683 45.8297C270.856 45.5636 270.665 45.2118 270.348 45.2118H264.878C264.563 45.2118 264.371 44.8636 264.54 44.5973Z" fill="url(#paint0_linear_224_15)"/>
<path d="M248.51 33.296L265.033 7.39236C265.191 7.14465 265.553 7.14613 265.709 7.39513L275.037 22.2855C275.118 22.415 275.118 22.5793 275.038 22.7091L259.732 47.3204C259.566 47.5869 259.758 47.9316 260.071 47.9316H265.879C266.199 47.9316 266.389 48.2899 266.21 48.5556L251.325 70.5853C251.146 70.8509 251.336 71.2092 251.656 71.2092H258.643C258.954 71.2092 259.146 71.5494 258.985 71.816L256.592 75.7794C256.52 75.8993 256.39 75.9726 256.25 75.9726H236.45C236.133 75.9726 235.942 75.6215 236.114 75.3554L246.999 58.525C247.171 58.2588 246.98 57.9078 246.663 57.9078H240.232C239.914 57.9078 239.723 57.5536 239.898 57.2876L254.899 34.5313C255.074 34.2653 254.883 33.9111 254.565 33.9111H248.847C248.531 33.9111 248.34 33.5623 248.51 33.296Z" fill="url(#paint1_linear_224_15)"/>
<path d="M314.291 33.3655L297.769 7.71256C297.611 7.46681 297.251 7.46829 297.095 7.71532L287.767 22.4629C287.685 22.5931 287.685 22.759 287.767 22.8894L303.068 47.2572C303.235 47.5236 303.044 47.87 302.729 47.87H296.929C296.607 47.87 296.417 48.2299 296.598 48.4954L311.475 70.302C311.656 70.5675 311.466 70.9274 311.145 70.9274H304.165C303.853 70.9274 303.661 71.269 303.823 71.5356L306.212 75.4539C306.285 75.573 306.414 75.6457 306.554 75.6457H326.354C326.671 75.6457 326.862 75.293 326.689 75.027L315.811 58.3704C315.638 58.1044 315.829 57.7517 316.146 57.7517H322.571C322.89 57.7517 323.081 57.3959 322.904 57.1301L307.911 34.6037C307.734 34.3378 307.925 33.9821 308.244 33.9821H313.955C314.271 33.9821 314.463 33.6317 314.291 33.3655Z" fill="url(#paint2_linear_224_15)"/>
<rect x="261.453" y="89.489" width="7.57361" height="12.8346" rx="0.4" fill="url(#paint3_linear_224_15)"/>
<rect x="294.454" y="89.489" width="7.57361" height="12.8346" rx="0.4" fill="url(#paint4_linear_224_15)"/>
<rect x="277.511" y="89.489" width="7.57361" height="15.3981" rx="0.4" fill="url(#paint5_linear_224_15)"/>
<defs>
<linearGradient id="paint0_linear_224_15" x1="281.966" y1="16.7599" x2="277.988" y2="132.575" gradientUnits="userSpaceOnUse">
<stop stop-color="#579D5D"/>
<stop offset="1"/>
</linearGradient>
<linearGradient id="paint1_linear_224_15" x1="255.896" y1="5.69204" x2="250.045" y2="121.342" gradientUnits="userSpaceOnUse">
<stop stop-color="#579D5D"/>
<stop offset="1"/>
</linearGradient>
<linearGradient id="paint2_linear_224_15" x1="306.908" y1="6.02986" x2="312.649" y2="120.592" gradientUnits="userSpaceOnUse">
<stop stop-color="#579D5D"/>
<stop offset="1"/>
</linearGradient>
<linearGradient id="paint3_linear_224_15" x1="265.327" y1="89.2723" x2="264.276" y2="110.752" gradientUnits="userSpaceOnUse">
<stop stop-color="#244026"/>
<stop offset="1"/>
</linearGradient>
<linearGradient id="paint4_linear_224_15" x1="298.328" y1="89.2723" x2="297.277" y2="110.752" gradientUnits="userSpaceOnUse">
<stop stop-color="#244026"/>
<stop offset="1"/>
</linearGradient>
<linearGradient id="paint5_linear_224_15" x1="281.385" y1="89.229" x2="279.873" y2="114.972" gradientUnits="userSpaceOnUse">
<stop stop-color="#244026"/>
<stop offset="1"/>
</linearGradient>
</defs>
</svg>
